<?xml version="1.0" encoding="iso-8859-1"?>
<!-- Generator: Adobe Illustrator 19.0.0, SVG Export Plug-In . SVG Version: 6.00 Build 0)  -->
<svg version="1.1" id="Layer_1" xmlns="http://www.w3.org/2000/svg" xmlns:xlink="http://www.w3.org/1999/xlink" x="0px" y="0px"
	 viewBox="0 0 511.998 511.998" style="enable-background:new 0 0 511.998 511.998;" xml:space="preserve">
<g>
	<g>
		<g>
			<path d="M358.955,226.471c0.068,0.002,0.137,0.008,0.205,0.01C359.801,226.272,358.705,226.428,358.955,226.471z"/>
			<path d="M156,226.477C156.825,226.485,155.258,226.224,156,226.477L156,226.477z"/>
			<path d="M147.221,241.375c0,28.883,0,67.654,0,80.807c0,13.099,10.656,23.755,23.754,23.755h112.404
				c4.156,0,7.524-3.368,7.524-7.524c0-4.156-3.368-7.524-7.524-7.524H170.974c-4.2,0-7.715-2.991-8.528-6.954
				c-0.241-1.174-0.178-0.216-0.178-19.025H352.8v17.272c0,4.8-3.906,8.707-8.706,8.707h-34.299c-4.156,0-7.524,3.368-7.524,7.524
				c0,4.156,3.368,7.524,7.524,7.524h34.299c13.098,0,23.754-10.656,23.754-23.755c0-13.179,0-52.116,0-80.726
				c50.785-3.959,89.09-47.431,88.361-95.792c0.001-0.069,0.003-0.139,0.003-0.209c0-59.448-53.916-104.961-112.872-94.369
				c-36.257-68.5-133.899-67.789-169.66,0.181C114.529,40.002,59.76,85.439,59.76,145.456c0,0.069,0.003,0.139,0.003,0.209
				c0,0.066-0.003,0.132-0.003,0.199C59.76,195.895,98.281,237.092,147.221,241.375z M156.81,64.838
				c3.231,0.091,7.608,0.196,10.791,0.667c-3.194,9.546-4.929,19.753-4.929,30.359c-0.001,4.155,3.368,7.524,7.523,7.524
				c4.155,0,7.524-3.369,7.524-7.524c0-60.935,64.442-98.862,117.432-72.048c26.589,13.535,44.249,41.037,44.249,72.048
				c0,4.155,3.368,7.524,7.524,7.524s7.524-3.369,7.524-7.524c0-10.66-1.751-20.918-4.976-30.505
				c2.83-0.383,6.841-0.439,9.691-0.523c44.505,0,81.884,36.34,81.997,80.822c-0.111,44.482-37.493,80.822-82.001,80.822
				c-0.104,0-0.168-0.004-0.205-0.01c-11.094-0.334-22.913-2.686-32.915-7.377c-3.759-1.764-8.243-0.146-10.007,3.617
				c-1.765,3.762-0.145,8.242,3.617,10.007c10.507,4.928,21.628,7.854,33.151,8.74v48.404h-37.923v-23.584
				c0-4.156-3.368-7.524-7.524-7.524c-4.156,0-7.524,3.368-7.524,7.524v23.584h-36.348v-23.584c0-4.156-3.368-7.524-7.524-7.524
				c-4.155,0-7.524,3.368-7.524,7.524v23.584h-36.346v-23.584c0-4.156-3.369-7.524-7.524-7.524c-4.155,0-7.524,3.368-7.524,7.524
				v23.584h-34.77v-48.343c11.847-0.8,23.276-3.744,34.056-8.801c3.762-1.765,5.381-6.245,3.617-10.007
				c-1.766-3.762-6.247-5.38-10.007-3.617c-10.303,4.832-22.495,7.175-33.935,7.384c-44.05-0.442-81.075-36.791-81.185-80.818
				C74.926,101.178,112.304,64.838,156.81,64.838z"/>
			<path d="M156.81,64.838C156.078,65.076,157.622,64.838,156.81,64.838L156.81,64.838z"/>
			<path d="M359.164,64.837C358.351,64.837,359.898,65.076,359.164,64.837L359.164,64.837z"/>
			<path d="M455.826,360.832c-22.194-38.443-100.126-13.528-102.414,30.919l-91.559,52.86l-88.881-51.314l0.973-1.685
				c6.548-11.343,2.646-25.899-8.696-32.448l-59.932-34.603c-3.6-2.077-8.201-0.846-10.279,2.754
				c-2.078,3.599-0.845,8.2,2.754,10.278l59.933,34.603c4.157,2.401,5.587,7.736,3.187,11.892
				c-6.658,11.533-4.642,8.04-9.425,16.324l-67.775-39.128c-3.599-2.076-8.2-0.846-10.278,2.754
				c-2.078,3.599-0.845,8.2,2.754,10.278l67.774,39.128c-1.526,2.642-5.899,10.218-9.423,16.323
				c-2.402,4.156-7.738,5.587-11.895,3.187l-59.932-34.601c-3.599-2.077-8.201-0.846-10.278,2.754
				c-2.078,3.599-0.845,8.2,2.754,10.278c64.902,37.47,63.329,37.779,71.77,37.779c8.215,0,16.218-4.261,20.613-11.872l0.971-1.682
				l67.299,38.854c-10.247,16.394,1.634,37.412,20.698,37.412c8.014,0,11.538-2.894,25.314-10.847l13.113,7.571
				c21.891,12.64,46.265-12.516,32.997-34.016l27.105-15.091c3.631-2.021,4.935-6.603,2.913-10.234
				c-2.022-3.631-6.604-4.937-10.234-2.913l-32.015,17.825L276.9,453.298l87.814-50.699c2.478-1.432,3.93-4.144,3.745-7
				c-2.069-32.111,59.576-52.808,74.332-27.244c14.787,25.608-34.04,68.558-60.76,50.752c-2.381-1.588-5.456-1.686-7.934-0.257
				l-24.454,14.118c-3.599,2.078-4.831,6.679-2.754,10.278c2.077,3.6,6.68,4.83,10.278,2.754l20.672-11.935
				C417.538,454.336,477.993,399.218,455.826,360.832z M241.215,495.571c-8.654,5.001-18.156-5.373-12.328-13.572l17.917,10.345
				L241.215,495.571z M296.244,485.019c1.596,5.947-2.889,11.812-9.076,11.812c-3.229,0-3.119-0.36-21.542-10.996
				c0,0-33.558-19.374-33.822-19.528c-0.001,0-0.002-0.001-0.002-0.001l-75.737-43.726l9.383-16.251
				C303.676,486.136,294.846,479.796,296.244,485.019z"/>
		</g>
	</g>
</g>
<g>
</g>
<g>
</g>
<g>
</g>
<g>
</g>
<g>
</g>
<g>
</g>
<g>
</g>
<g>
</g>
<g>
</g>
<g>
</g>
<g>
</g>
<g>
</g>
<g>
</g>
<g>
</g>
<g>
</g>
</svg>
