<?xml version="1.0" encoding="UTF-8" standalone="no"?>
<!-- Created with Inkscape (http://www.inkscape.org/) -->

<svg
   version="1.1"
   id="svg294"
   xml:space="preserve"
   width="682.66669"
   height="682.66669"
   viewBox="0 0 682.66669 682.66669"
   xmlns="http://www.w3.org/2000/svg"
   xmlns:svg="http://www.w3.org/2000/svg"><defs
     id="defs298"><clipPath
       clipPathUnits="userSpaceOnUse"
       id="clipPath308"><path
         d="M 0,512 H 512 V 0 H 0 Z"
         id="path306" /></clipPath></defs><g
     id="g300"
     transform="matrix(1.3333333,0,0,-1.3333333,0,682.66667)"><g
       id="g302"><g
         id="g304"
         clip-path="url(#clipPath308)"><g
           id="g310"
           transform="translate(270.0713,312.6152)"><path
             d="m 0,0 c -11.254,10.891 -17.244,8.24 -25.938,14.105 -21.438,14.464 -36.453,11.768 -63.156,-9.847 -22.032,-17.835 -56.51,-35.92 -64.819,-39.951 -11.741,-5.696 -5.366,-31.271 14.816,-35.413 43.392,-8.905 69.327,42.462 93.582,20.11 20.671,-19.047 35.662,-34.427 21.432,-51.28 -22.58,-26.741 -28.438,-26.155 -49.144,-15.339 -30.404,15.882 -23.375,37.454 -56.574,44.416 -21.155,4.437 -40.159,-13.452 -32.565,-24.616 5.375,-7.901 16.202,-17.281 26.497,-44.76 20.515,-54.758 70.906,-43.205 71.349,-97.44"
             style="fill:none;stroke:#000000;stroke-width:20;stroke-linecap:round;stroke-linejoin:round;stroke-miterlimit:22.926;stroke-dasharray:none;stroke-opacity:1"
             id="path312" /></g><g
           id="g314"
           transform="translate(342.083,71.8882)"><path
             d="M 0,0 H 55.575 V -61.888 H -145.569 V 0 H -90"
             style="fill:none;stroke:#000000;stroke-width:20;stroke-linecap:round;stroke-linejoin:round;stroke-miterlimit:22.926;stroke-dasharray:none;stroke-opacity:1"
             id="path316" /></g><g
           id="g318"
           transform="translate(388.5718,72.6006)"><path
             d="m 0,0 c 0.267,30.375 17.428,60.75 17.428,91.125 v 74.596 l -6.819,116.335 c -0.836,14.269 -5.207,27.312 -19.905,27.312 -14.698,0 -28.608,-11.876 -26.54,-26.026"
             style="fill:none;stroke:#000000;stroke-width:20;stroke-linecap:round;stroke-linejoin:round;stroke-miterlimit:22.926;stroke-dasharray:none;stroke-opacity:1"
             id="path320" /></g><g
           id="g322"
           transform="translate(244.0142,327.1162)"><path
             d="m 0,0 -38.009,126.467 c -12.897,42.911 40.893,69.77 53.899,26.226 L 56.272,17.495 C 61.082,0.039 76.653,-4.015 79.32,-32.01"
             style="fill:none;stroke:#000000;stroke-width:20;stroke-linecap:round;stroke-linejoin:round;stroke-miterlimit:22.926;stroke-dasharray:none;stroke-opacity:1"
             id="path324" /></g><g
           id="g326"
           transform="translate(295.0117,362.2817)"><path
             d="m 0,0 -7.425,55.563 c -5.708,42.715 47.197,72.425 53.72,23.616 L 69.999,-98.184"
             style="fill:none;stroke:#000000;stroke-width:20;stroke-linecap:round;stroke-linejoin:round;stroke-miterlimit:22.926;stroke-dasharray:none;stroke-opacity:1"
             id="path328" /></g><g
           id="g330"
           transform="translate(297.0786,71.8882)"><path
             d="M 0,0 H 0.008"
             style="fill:none;stroke:#000000;stroke-width:20;stroke-linecap:round;stroke-linejoin:round;stroke-miterlimit:2.613;stroke-dasharray:none;stroke-opacity:1"
             id="path332" /></g></g></g></g></svg>
